<?xml version="1.0" encoding="utf-8"?>
<svg xmlns="http://www.w3.org/2000/svg" xmlns:xlink="http://www.w3.org/1999/xlink" viewBox="0 0 1000 1000">
<defs>
<style>.cls-1{fill:url(#linear-gradient);}.cls-2{fill:#fff;}</style>
<linearGradient id="linear-gradient" x1="146.45" y1="853.55" x2="853.55" y2="146.45" gradientUnits="userSpaceOnUse">
<stop offset="0" stop-color="#021b79"/>
<stop offset="1" stop-color="#0575e6"/>
</linearGradient>
</defs>
<title>logo-vector</title>
<g id="Layer_1">
<circle class="cls-1" cx="500" cy="500" r="500"/>
</g>
<g id="Layer_2">
<path class="cls-2" d="M461.3,561.63v176c0,15.52,7.62,28.47,24.41,29.16,15.49.63,20-8.25,26.59-20L533,707.57l52.77-99.42,25.47-48.35,25.66-48.34c3.91-7.76,9.58-15.82,10.33-24.63.95-11-7.33-22.7-17.78-25.73a27.53,27.53,0,0,0-8.14-.72H562.55v-176c0-15.63-7.37-28.78-24.41-29.18-18.34-.42-22.84,12.32-30.07,26.44l-18.95,35.58L414.91,457.64l-21.69,41.05-14.3,27.36C374,538,377.5,551.81,389,558.41c4.9,2.81,9.89,3.21,15.37,3.22Z" transform="translate(-12 -12)"/>
</g>
</svg>
